<svg xmlns="http://www.w3.org/2000/svg" viewBox="0 0 512 512" role="img" aria-label="my diary">
  <defs>
    <linearGradient id="bg" x1="0" y1="0" x2="0" y2="1">
      <stop offset="0" stop-color="#ffd6e8"/>
      <stop offset=".55" stop-color="#f0d8f6"/>
      <stop offset="1" stop-color="#dae6ff"/>
    </linearGradient>
    <clipPath id="r"><rect width="512" height="512" rx="115"/></clipPath>
  </defs>

  <g clip-path="url(#r)">
    <rect width="512" height="512" fill="url(#bg)"/>
  </g>

  <!-- ince ic cerceve -->
  <rect x="34" y="34" width="444" height="444" rx="87"
        fill="none" stroke="#ffffff" stroke-opacity=".6" stroke-width="3"/>

  <!-- fiyonk: ucgen ilmekler kucuk boyutta daha okunakli -->
  <g fill="#f69abc" stroke="#c6567f" stroke-width="2" stroke-linejoin="round">
    <path d="M247.3 176 L194 138 L194 214 Z"/>
    <path d="M264.7 176 L318 138 L318 214 Z"/>
  </g>
  <circle cx="256" cy="176" r="15.2" fill="#c6567f"/>

  <!-- "my diary" — yazi tipi gerekmesin diye vektore cevrildi -->
  <path d="M134.256 345.312Q130.33599999999998 345.312 128.54399999999998 342.904Q126.752 340.49600000000004 126.752 337.136Q126.752 334.336 127.59199999999998 331.53600000000006Q128.432 328.73600000000005 129.272 326.048Q130.112 323.36 130.112 321.232Q130.112 318.992 129.10399999999998 318.096Q128.096 317.20000000000005 126.864 317.20000000000005Q124.064 317.20000000000005 120.75999999999999 321.56800000000004Q117.45599999999999 325.93600000000004 112.192 333.88800000000003Q110.39999999999999 336.576 109.16799999999999 339.32000000000005Q107.93599999999999 342.064 106.81599999999999 344.30400000000003Q105.91999999999999 344.30400000000003 104.576 344.08000000000004Q103.232 343.85600000000005 102.16799999999999 343.35200000000003Q101.10399999999998 342.848 101.10399999999998 342.064Q101.10399999999998 341.28000000000003 102.16799999999999 338.312Q103.232 335.34400000000005 104.632 331.36800000000005Q106.032 327.39200000000005 107.096 323.30400000000003Q108.16 319.216 108.16 316.30400000000003Q108.16 314.40000000000003 107.544 313.22400000000005Q106.928 312.048 105.35999999999999 312.048Q102.89599999999999 312.048 99.42399999999999 315.016Q95.952 317.98400000000004 92.256 322.80000000000007Q88.55999999999999 327.61600000000004 85.256 333.384Q81.952 339.15200000000004 79.93599999999999 344.86400000000003Q78.928 344.86400000000003 77.472 344.528Q76.01599999999999 344.192 74.952 343.63200000000006Q73.88799999999999 343.07200000000006 73.88799999999999 342.51200000000006Q73.88799999999999 341.84000000000003 75.064 338.53600000000006Q76.24 335.232 77.752 330.58400000000006Q79.264 325.93600000000004 80.44 321.12Q81.616 316.30400000000003 81.616 312.60800000000006Q82.288 311.824 83.744 311.04Q85.19999999999999 310.25600000000003 86.768 310.25600000000003Q88.336 310.25600000000003 89.064 311.04Q89.79199999999999 311.824 89.79199999999999 313.168Q89.79199999999999 314.624 88.952 318.15200000000004Q88.112 321.68 86.88 325.93600000000004Q89.11999999999999 322.35200000000003 91.976 318.6Q94.832 314.848 97.96799999999999 311.712Q101.10399999999998 308.576 104.29599999999999 306.61600000000004Q107.488 304.65600000000006 110.512 304.65600000000006Q113.984 304.65600000000006 115.27199999999999 307.17600000000004Q116.56 309.696 116.56 313.168Q116.56 315.968 115.944 319.048Q115.328 322.12800000000004 114.544 324.76000000000005Q113.75999999999999 327.39200000000005 113.088 328.96000000000004Q115.44 324.704 118.29599999999999 320.728Q121.15199999999999 316.752 124.51199999999999 314.232Q127.87199999999999 311.71200000000005 131.68 311.71200000000005Q135.264 311.71200000000005 136.664 313.84000000000003Q138.064 315.968 138.064 318.88000000000005Q138.064 321.79200000000003 137.05599999999998 325.264Q136.048 328.73600000000005 134.98399999999998 331.98400000000004Q133.92 335.232 133.92 337.58400000000006Q133.92 339.04 134.64799999999997 340.216Q135.37599999999998 341.39200000000005 137.28 341.39200000000005Q140.416 341.39200000000005 143.16 338.53600000000006Q145.904 335.68 148.256 331.592Q150.608 327.504 152.288 323.696L153.632 325.264Q151.83999999999997 329.968 149.04 334.616Q146.24 339.264 142.488 342.288Q138.736 345.312 134.256 345.312Z M154.976 373.20000000000005Q152.176 373.20000000000005 150.048 371.68800000000005Q147.92 370.17600000000004 147.92 367.264Q147.92 363.68 149.712 360.88Q151.504 358.08000000000004 154.528 355.72800000000007Q157.552 353.37600000000003 161.47199999999998 351.24800000000005Q165.392 349.12 169.648 346.992Q171.216 342.848 172.84 337.752Q174.464 332.656 175.92 326.49600000000004Q172.336 332.32000000000005 168.248 336.52000000000004Q164.16 340.72 159.56799999999998 340.72Q157.44 340.72 155.368 339.76800000000003Q153.296 338.81600000000003 151.952 336.80000000000007Q150.608 334.78400000000005 150.608 331.648Q150.608 328.51200000000006 151.672 324.36800000000005Q152.736 320.22400000000005 154.30399999999997 316.30400000000003Q155.87199999999999 312.384 157.552 309.808Q159.232 307.232 160.464 307.232Q160.912 307.232 162.08800000000002 307.56800000000004Q163.264 307.90400000000005 164.328 308.52000000000004Q165.392 309.136 165.392 309.80800000000005Q164.384 311.264 163.152 313.952Q161.92 316.64000000000004 160.74399999999997 319.9440000000001Q159.56799999999998 323.24800000000005 158.784 326.384Q158.0 329.52000000000004 158.0 331.76000000000005Q158.0 333.776 158.89600000000002 335.00800000000004Q159.792 336.24 162.03199999999998 336.24Q164.16 336.24 166.792 334.168Q169.424 332.096 172.05599999999998 328.848Q174.688 325.6 176.928 321.90400000000005Q177.264 320.672 177.544 319.384Q177.824 318.096 178.048 316.752Q178.384 315.184 179.672 313.112Q180.96 311.04 183.76 311.04Q184.32 311.04 184.88 311.096Q185.44 311.15200000000004 186.112 311.37600000000003Q186.112 313.168 185.048 318.04Q183.98399999999998 322.91200000000003 182.024 329.408Q180.064 335.90400000000005 177.376 342.73600000000005Q182.64 340.72 187.68 336.072Q192.72 331.42400000000004 195.856 323.696L197.312 324.81600000000003Q195.632 330.192 192.216 334.168Q188.8 338.144 184.544 341.0Q180.288 343.85600000000005 176.144 345.76000000000005Q173.232 352.92800000000005 169.816 359.20000000000005Q166.4 365.47200000000004 162.648 369.336Q158.896 373.20000000000005 154.976 373.20000000000005ZM154.416 369.61600000000004Q156.096 369.61600000000004 160.072 365.192Q164.048 360.76800000000003 168.528 349.68Q163.936 352.144 160.01600000000002 354.552Q156.096 356.96000000000004 153.744 359.76000000000005Q151.392 362.56000000000006 151.392 366.25600000000003Q151.392 367.15200000000004 152.064 368.384Q152.736 369.61600000000004 154.416 369.61600000000004Z M229.45600000000002 345.20000000000005Q227.55200000000002 345.20000000000005 225.592 344.24800000000005Q223.632 343.29600000000005 222.344 341.168Q221.056 339.04 221.056 335.79200000000003Q221.056 332.096 222.848 327.504Q224.64000000000001 322.91200000000003 227.66400000000002 318.37600000000003Q230.68800000000002 313.84000000000003 234.608 309.976Q238.52800000000002 306.112 242.78400000000002 303.81600000000003Q247.04000000000002 301.52000000000004 251.18400000000003 301.52000000000004Q253.536 301.52000000000004 254.824 302.36Q256.112 303.20000000000005 256.112 304.992Q256.112 305.44000000000005 256.05600000000004 305.77600000000007Q256.0 306.112 255.888 306.56000000000006Q255.32800000000003 305.66400000000004 254.264 305.27200000000005Q253.20000000000002 304.88000000000005 251.632 304.88000000000005Q248.048 304.88000000000005 244.632 307.0640000000001Q241.216 309.24800000000005 238.36 312.77600000000007Q235.50400000000002 316.30400000000003 233.37600000000003 320.336Q231.24800000000002 324.36800000000005 230.072 328.12Q228.89600000000002 331.872 228.89600000000002 334.44800000000004Q228.89600000000002 336.91200000000003 230.01600000000002 338.36800000000005Q231.13600000000002 339.824 232.92800000000003 339.824Q235.95200000000003 339.824 240.264 336.016Q244.57600000000002 332.208 249.056 325.264Q253.536 318.32000000000005 257.12 309.024Q259.584 302.528 262.216 295.808Q264.848 289.088 267.536 282.87200000000007Q270.224 276.65600000000006 272.744 271.78400000000005Q275.264 266.91200000000003 277.56 264.05600000000004Q279.856 261.20000000000005 281.648 261.20000000000005Q282.544 261.20000000000005 283.216 261.92800000000005Q283.88800000000003 262.65600000000006 283.88800000000003 263.776Q283.88800000000003 265.56800000000004 282.04 269.88Q280.192 274.192 277.22400000000005 280.184Q274.25600000000003 286.17600000000004 271.00800000000004 293.232Q267.76 300.288 264.79200000000003 307.568Q261.824 314.848 259.976 321.624Q258.12800000000004 328.40000000000003 258.12800000000004 334.00000000000006Q258.12800000000004 337.136 258.46400000000006 338.70400000000006Q258.8 340.27200000000005 260.704 340.27200000000005Q263.05600000000004 340.27200000000005 266.192 338.25600000000003Q269.32800000000003 336.24 272.46400000000006 332.544Q275.6 328.848 277.952 323.696L279.296 324.704Q277.168 330.41600000000005 273.472 334.95200000000006Q269.776 339.48800000000006 265.576 342.12Q261.37600000000003 344.752 257.568 344.752Q253.424 344.752 251.8 342.00800000000004Q250.17600000000002 339.264 250.17600000000002 336.35200000000003Q250.17600000000002 334.44800000000004 250.73600000000002 331.312Q251.29600000000002 328.17600000000004 252.304 324.36800000000005Q248.72000000000003 330.30400000000003 244.68800000000002 335.064Q240.656 339.824 236.79200000000003 342.51200000000006Q232.92800000000003 345.20000000000005 229.45600000000002 345.20000000000005Z M283.88800000000003 344.752Q279.52000000000004 344.752 277.39200000000005 342.00800000000004Q275.264 339.264 275.264 335.34400000000005Q275.264 332.76800000000003 276.216 328.84800000000007Q277.168 324.92800000000005 278.736 320.61600000000004Q280.30400000000003 316.30400000000003 282.37600000000003 312.49600000000004Q284.44800000000004 308.68800000000005 286.8 306.28000000000003Q289.152 303.872 291.392 303.872Q292.40000000000003 303.872 293.12800000000004 304.48800000000006Q293.856 305.10400000000004 293.856 306.336Q293.856 307.68 292.12 310.704Q290.384 313.728 288.03200000000004 317.648Q285.68 321.56800000000004 283.944 325.88Q282.208 330.192 282.208 334.112Q282.208 338.144 283.552 339.48800000000006Q284.896 340.83200000000005 287.696 340.83200000000005Q291.504 340.83200000000005 295.81600000000003 337.024Q300.12800000000004 333.216 304.944 323.696L305.952 324.81600000000003Q302.704 334.44800000000004 296.6 339.6Q290.49600000000004 344.752 283.88800000000003 344.752ZM297.32800000000003 293.456Q295.536 293.456 294.13599999999997 292.56000000000006Q292.736 291.66400000000004 292.736 289.76000000000005Q292.736 287.408 295.48 285.672Q298.224 283.93600000000004 300.91200000000003 283.93600000000004Q302.592 283.93600000000004 303.6 284.72Q304.608 285.504 304.608 287.408Q304.608 289.53600000000006 302.312 291.49600000000004Q300.016 293.456 297.32800000000003 293.456Z M308.192 347.10400000000004Q304.72 347.10400000000004 302.312 344.80800000000005Q299.90400000000005 342.51200000000006 299.90400000000005 337.80800000000005Q299.90400000000005 333.776 301.696 329.12800000000004Q303.48800000000006 324.48 306.624 319.944Q309.76000000000005 315.408 313.73600000000005 311.65600000000006Q317.71200000000005 307.90400000000005 322.1360000000001 305.66400000000004Q326.56000000000006 303.42400000000004 330.92800000000005 303.42400000000004Q335.29600000000005 303.42400000000004 338.208 305.72Q341.12 308.016 341.12 311.824Q341.12 314.624 339.608 315.63200000000006Q338.096 316.64000000000004 335.63200000000006 316.64000000000004Q335.85600000000005 315.744 336.024 314.68000000000006Q336.192 313.61600000000004 336.192 312.72Q336.192 310.144 334.96000000000004 308.29600000000005Q333.728 306.44800000000004 330.704 306.44800000000004Q327.56800000000004 306.44800000000004 324.32000000000005 308.63200000000006Q321.072 310.81600000000003 318.048 314.456Q315.02400000000006 318.096 312.672 322.352Q310.32000000000005 326.608 308.976 330.752Q307.632 334.896 307.632 338.144Q307.632 342.51200000000006 310.656 342.51200000000006Q313.232 342.51200000000006 316.25600000000003 340.10400000000004Q319.28000000000003 337.696 322.47200000000004 333.944Q325.66400000000004 330.192 328.576 326.16Q331.48800000000006 322.12800000000004 333.728 318.76800000000003Q334.17600000000004 318.096 334.288 318.096Q334.96000000000004 318.208 336.024 318.54400000000004Q337.088 318.88000000000005 337.87200000000007 319.44000000000005Q338.65600000000006 320.00000000000006 338.65600000000006 320.896Q338.65600000000006 321.90400000000005 337.648 323.64000000000004Q336.64000000000004 325.37600000000003 335.408 327.61600000000004Q334.17600000000004 329.85600000000005 333.168 332.15200000000004Q332.16 334.44800000000004 332.16 336.46400000000006Q332.16 338.144 333.05600000000004 339.76800000000003Q333.95200000000006 341.39200000000005 335.968 341.39200000000005Q338.992 341.39200000000005 343.92 336.9680000000001Q348.848 332.54400000000004 353.88800000000003 323.696L355.00800000000004 324.81600000000003Q352.65600000000006 330.86400000000003 348.96000000000004 335.456Q345.264 340.04800000000006 341.064 342.624Q336.86400000000003 345.20000000000005 332.83200000000005 345.20000000000005Q328.68800000000005 345.20000000000005 326.72800000000007 342.73600000000005Q324.76800000000003 340.27200000000005 324.76800000000003 337.36Q324.76800000000003 336.68800000000005 324.88 335.84800000000007Q324.992 335.00800000000004 325.10400000000004 334.112Q320.288 340.608 316.312 343.856Q312.336 347.10400000000004 308.192 347.10400000000004Z M371.024 344.752Q367.216 344.752 365.03200000000004 342.736Q362.848 340.72 362.848 337.47200000000004Q362.848 334.112 364.41600000000005 330.41600000000005Q365.98400000000004 326.72 367.49600000000004 323.08000000000004Q369.00800000000004 319.44000000000005 369.00800000000004 316.528Q369.00800000000004 312.944 366.93600000000004 311.208Q364.86400000000003 309.47200000000004 362.73600000000005 308.016Q360.16 314.624 357.36 320.56000000000006Q354.56 326.49600000000004 352.76800000000003 329.52000000000004L351.76000000000005 327.61600000000004Q353.32800000000003 324.704 355.84800000000007 319.10400000000004Q358.36800000000005 313.504 360.83200000000005 306.336Q359.71200000000005 305.216 359.71200000000005 303.648Q359.71200000000005 300.288 361.61600000000004 298.16Q363.52000000000004 296.03200000000004 364.41600000000005 296.03200000000004Q365.648 296.03200000000004 365.81600000000003 297.096Q365.98400000000004 298.16 365.98400000000004 298.72Q365.98400000000004 299.28000000000003 365.36800000000005 300.904Q364.752 302.528 364.752 302.86400000000003Q364.752 304.432 366.48800000000006 305.72Q368.22400000000005 307.00800000000004 370.46400000000006 308.63200000000006Q372.704 310.25600000000003 374.44000000000005 312.552Q376.17600000000004 314.848 376.17600000000004 318.432Q376.17600000000004 321.79200000000003 374.77600000000007 325.264Q373.37600000000003 328.73600000000005 371.976 331.87200000000007Q370.576 335.00800000000004 370.576 337.36Q370.576 339.37600000000003 371.58400000000006 340.048Q372.59200000000004 340.72 373.93600000000004 340.72Q376.624 340.72 379.48 339.04Q382.336 337.36 385.024 334.784Q387.71200000000005 332.208 389.84000000000003 329.35200000000003Q391.968 326.49600000000004 392.976 324.03200000000004L394.432 325.15200000000004Q392.30400000000003 329.85600000000005 388.60800000000006 334.39200000000005Q384.91200000000003 338.92800000000005 380.37600000000003 341.84000000000003Q375.84000000000003 344.752 371.024 344.752Z M395.44 373.20000000000005Q392.64000000000004 373.20000000000005 390.51200000000006 371.68800000000005Q388.384 370.17600000000004 388.384 367.264Q388.384 363.68 390.17600000000004 360.88Q391.968 358.08000000000004 394.992 355.72800000000007Q398.016 353.37600000000003 401.93600000000004 351.24800000000005Q405.85600000000005 349.12 410.112 346.992Q411.68 342.848 413.304 337.752Q414.928 332.656 416.384 326.49600000000004Q412.8 332.32000000000005 408.712 336.52000000000004Q404.624 340.72 400.03200000000004 340.72Q397.904 340.72 395.832 339.76800000000003Q393.76000000000005 338.81600000000003 392.41600000000005 336.80000000000007Q391.072 334.78400000000005 391.072 331.648Q391.072 328.51200000000006 392.136 324.36800000000005Q393.20000000000005 320.22400000000005 394.76800000000003 316.30400000000003Q396.336 312.384 398.016 309.808Q399.696 307.232 400.928 307.232Q401.37600000000003 307.232 402.552 307.56800000000004Q403.728 307.90400000000005 404.79200000000003 308.52000000000004Q405.85600000000005 309.136 405.85600000000005 309.80800000000005Q404.848 311.264 403.616 313.952Q402.384 316.64000000000004 401.208 319.9440000000001Q400.03200000000004 323.24800000000005 399.24800000000005 326.384Q398.464 329.52000000000004 398.464 331.76000000000005Q398.464 333.776 399.36 335.00800000000004Q400.25600000000003 336.24 402.49600000000004 336.24Q404.624 336.24 407.25600000000003 334.168Q409.88800000000003 332.096 412.52000000000004 328.848Q415.15200000000004 325.6 417.39200000000005 321.90400000000005Q417.728 320.672 418.00800000000004 319.384Q418.288 318.096 418.512 316.752Q418.848 315.184 420.136 313.112Q421.42400000000004 311.04 424.22400000000005 311.04Q424.78400000000005 311.04 425.34400000000005 311.096Q425.904 311.15200000000004 426.576 311.37600000000003Q426.576 313.168 425.51200000000006 318.04Q424.44800000000004 322.91200000000003 422.48800000000006 329.408Q420.528 335.90400000000005 417.84000000000003 342.73600000000005Q423.10400000000004 340.72 428.144 336.072Q433.184 331.42400000000004 436.32000000000005 323.696L437.776 324.81600000000003Q436.096 330.192 432.68 334.168Q429.264 338.144 425.00800000000004 341.0Q420.752 343.85600000000005 416.608 345.76000000000005Q413.696 352.92800000000005 410.28000000000003 359.20000000000005Q406.86400000000003 365.47200000000004 403.112 369.336Q399.36 373.20000000000005 395.44 373.20000000000005ZM394.88 369.61600000000004Q396.56 369.61600000000004 400.536 365.192Q404.512 360.76800000000003 408.992 349.68Q404.40000000000003 352.144 400.48 354.552Q396.56 356.96000000000004 394.208 359.76000000000005Q391.85600000000005 362.56000000000006 391.85600000000005 366.25600000000003Q391.85600000000005 367.15200000000004 392.528 368.384Q393.20000000000005 369.61600000000004 394.88 369.61600000000004Z" fill="#aa3a64"/>

  <!-- defter satiri -->
  <line x1="180" y1="388" x2="332" y2="388" stroke="#aa3a64" stroke-opacity=".47" stroke-width="4" stroke-linecap="round"/>
</svg>
